<svg width="38" height="40" viewBox="0 0 38 40" fill="none" xmlns="http://www.w3.org/2000/svg">
<path d="M20.25 0.958349C25.8125 3.54168 31.5 6.22918 37.0417 8.81252C37.3542 8.95835 37.75 9.06252 37.75 9.47918C37.75 9.89585 37.3542 9.97918 37.0417 10.125C31.5 12.7084 25.875 15.3542 20.2917 17.9167C19.8951 18.1318 19.4511 18.2445 19 18.2445C18.5489 18.2445 18.1049 18.1318 17.7083 17.9167C12.1042 15.3334 6.5 12.7084 0.916667 10.1042C0.625 9.97918 0.25 9.87502 0.25 9.45835C0.25 9.08335 0.625 8.97918 0.895833 8.85418C6.5 6.22918 12.2083 3.54168 17.8333 0.937515C18.4375 0.666682 19.625 0.687515 20.25 0.958349ZM19 39.0625C18.5833 39.0625 18.2917 38.8958 17.7083 38.6875C12.1042 36.1042 6.5 33.4792 0.9375 30.875C0.645833 30.7292 0.25 30.6459 0.25 30.2084C0.25 29.7917 0.645833 29.7084 0.958333 29.5625C1.875 29.125 2.8125 28.6875 3.72917 28.25C4.66667 27.8334 5.58333 27.8334 6.5 28.2709C10.2292 30 13.9375 31.7292 17.6458 33.4584C18.5625 33.8959 19.4792 33.875 20.3958 33.4584C24.1042 31.7083 27.8125 29.9792 31.5 28.25C32.4167 27.8334 33.3125 27.8125 34.1875 28.2292C35.1875 28.6667 36.1667 29.1459 37.1458 29.6042C37.2917 29.6667 37.4375 29.75 37.5625 29.8542C37.8333 30.0625 37.8333 30.4167 37.5625 30.5834C37.3958 30.7084 37.2083 30.8125 37.0208 30.8959C31.5 33.5417 25.9375 36.0834 20.375 38.6459C19.9583 38.8542 19.3958 39.0625 19 39.0625ZM19 28.6875C18.7917 28.6875 18.0625 28.4792 17.6667 28.3334C12.0833 25.7084 6.5 23.125 0.958333 20.5C0.666666 20.375 0.25 20.2709 0.25 19.8542C0.25 19.4167 0.666666 19.3333 0.979166 19.1875C1.91667 18.7292 2.85417 18.2917 3.79167 17.8542C4.6875 17.4584 5.58333 17.4584 6.5 17.9167C10.2083 19.625 13.9583 21.375 17.7083 23.125C18.5625 23.5209 19.4375 23.5209 20.3125 23.125C24.0625 21.3542 27.8125 19.6042 31.5833 17.8542C32.4375 17.4584 33.3125 17.4584 34.1875 17.8542C35.1667 18.3125 36.1667 18.7709 37.1458 19.2292C37.2708 19.2917 37.4167 19.3542 37.5417 19.4583C37.8333 19.6875 37.8333 20 37.5208 20.25C37.4167 20.3334 37.2708 20.3959 37.1458 20.4584C31.5 23.125 25.8958 25.7292 20.2708 28.3334C19.875 28.5209 19.1667 28.6875 19 28.6875Z" fill="#162447"/>
</svg>
